<svg width="25" height="29" viewBox="0 0 25 29" fill="none" xmlns="http://www.w3.org/2000/svg">
<path fill-rule="evenodd" clip-rule="evenodd" d="M1.20968 21.2304C1.87776 21.2304 2.41935 21.7819 2.41935 22.4622V25.7472C2.41935 25.974 2.59989 26.1578 2.82258 26.1578H22.1774C22.4001 26.1578 22.5806 25.974 22.5806 25.7472V22.4622C22.5806 21.7819 23.1222 21.2304 23.7903 21.2304C24.4584 21.2304 25 21.7819 25 22.4622V25.7472C25 27.3346 23.7363 28.6215 22.1774 28.6215H2.82258C1.26371 28.6215 0 27.3346 0 25.7472V22.4622C0 21.7819 0.541591 21.2304 1.20968 21.2304Z" fill="#F4F8F0"/>
<path d="M10.4644 0.699463C9.63477 0.699463 8.94269 1.34516 8.87024 2.1868C8.62243 5.06559 8.57872 7.95853 8.73932 10.8431C8.34096 10.8655 7.94275 10.8915 7.54472 10.9211L5.1423 11.0994C4.21601 11.1682 3.6982 12.2199 4.19828 13.0169C5.91124 15.7468 8.11844 18.1201 10.7022 20.0102L11.6647 20.7143C12.1639 21.0794 12.8363 21.0794 13.3355 20.7143L14.2979 20.0102C16.8817 18.1201 19.0889 15.7468 20.8019 13.0169C21.302 12.2199 20.7842 11.1682 19.8579 11.0994L17.4555 10.9211C17.0574 10.8915 16.6592 10.8655 16.2608 10.8431C16.4215 7.95852 16.3777 5.06559 16.1299 2.1868C16.0575 1.34515 15.3654 0.699463 14.5357 0.699463H10.4644Z" fill="#F4F8F0"/>
</svg>
